<svg width="33" height="33" viewBox="0 0 33 33" fill="none" xmlns="http://www.w3.org/2000/svg">
<path d="M21.45 8.7285V1.65C21.45 0.7425 20.7075 0 19.8 0H13.2C12.2925 0 11.55 0.7425 11.55 1.65V8.7285C11.55 8.943 11.6325 9.1575 11.7975 9.306L15.9225 13.431C16.2525 13.761 16.764 13.761 17.094 13.431L21.219 9.306C21.3675 9.1575 21.45 8.9595 21.45 8.7285ZM8.7285 11.55H1.65C0.7425 11.55 0 12.2925 0 13.2V19.8C0 20.7075 0.7425 21.45 1.65 21.45H8.7285C8.943 21.45 9.1575 21.3675 9.306 21.2025L13.431 17.0775C13.761 16.7475 13.761 16.236 13.431 15.906L9.306 11.781C9.1575 11.6325 8.9595 11.55 8.7285 11.55ZM11.55 24.2715V31.35C11.55 32.2575 12.2925 33 13.2 33H19.8C20.7075 33 21.45 32.2575 21.45 31.35V24.2715C21.45 24.057 21.3675 23.8425 21.2025 23.694L17.0775 19.569C16.7475 19.239 16.236 19.239 15.906 19.569L11.781 23.694C11.6325 23.8425 11.55 24.0405 11.55 24.2715ZM23.6775 11.7975L19.5525 15.9225C19.2225 16.2525 19.2225 16.764 19.5525 17.094L23.6775 21.219C23.826 21.3675 24.0405 21.4665 24.255 21.4665H31.35C32.2575 21.4665 33 20.724 33 19.8165V13.2165C33 12.309 32.2575 11.5665 31.35 11.5665H24.2715C24.0405 11.55 23.8425 11.6325 23.6775 11.7975Z" fill="#00B2FF"/>
</svg>
