<svg width="103" height="42" viewBox="0 0 103 42" fill="none" xmlns="http://www.w3.org/2000/svg">
<path d="M47.724 10.914H49.815V15.657C49.203 16.1443 48.489 16.5183 47.673 16.779C46.857 17.0397 46.0183 17.17 45.157 17.17C43.9443 17.17 42.8507 16.9093 41.876 16.388C40.9013 15.8553 40.1363 15.1243 39.581 14.195C39.0257 13.2657 38.748 12.2173 38.748 11.05C38.748 9.88267 39.0257 8.83433 39.581 7.905C40.1363 6.97567 40.9013 6.25033 41.876 5.729C42.862 5.19633 43.967 4.93 45.191 4.93C46.1883 4.93 47.095 5.09433 47.911 5.423C48.727 5.75167 49.4127 6.23333 49.968 6.868L48.574 8.228C47.6673 7.32133 46.5737 6.868 45.293 6.868C44.4543 6.868 43.7063 7.04367 43.049 7.395C42.403 7.74633 41.893 8.23933 41.519 8.874C41.1563 9.50867 40.975 10.234 40.975 11.05C40.975 11.8433 41.1563 12.5573 41.519 13.192C41.893 13.8267 42.403 14.3253 43.049 14.688C43.7063 15.0507 44.4487 15.232 45.276 15.232C46.2053 15.232 47.0213 15.028 47.724 14.62V10.914ZM60.4478 14.246H54.4978L53.3248 17H51.0468L56.4018 5.1H58.5778L63.9498 17H61.6378L60.4478 14.246ZM59.7168 12.512L57.4728 7.31L55.2458 12.512H59.7168ZM76.3942 17L76.3772 9.112L72.4672 15.64H71.4812L67.5712 9.214V17H65.4632V5.1H67.2822L72.0082 12.988L76.6492 5.1H78.4682L78.4852 17H76.3942ZM90.6246 15.147V17H81.6996V5.1H90.3866V6.953H83.9096V10.047H89.6556V11.866H83.9096V15.147H90.6246ZM96.7772 17.17C95.8592 17.17 94.9696 17.0397 94.1082 16.779C93.2582 16.5183 92.5839 16.1727 92.0852 15.742L92.8502 14.025C93.3376 14.4103 93.9326 14.7277 94.6352 14.977C95.3492 15.215 96.0632 15.334 96.7772 15.334C97.6612 15.334 98.3186 15.1923 98.7492 14.909C99.1912 14.6257 99.4122 14.2517 99.4122 13.787C99.4122 13.447 99.2876 13.1693 99.0382 12.954C98.8002 12.7273 98.4942 12.5517 98.1202 12.427C97.7462 12.3023 97.2362 12.1607 96.5902 12.002C95.6836 11.7867 94.9469 11.5713 94.3802 11.356C93.8249 11.1407 93.3432 10.8063 92.9352 10.353C92.5386 9.88833 92.3402 9.265 92.3402 8.483C92.3402 7.82567 92.5159 7.23067 92.8672 6.698C93.2299 6.154 93.7682 5.72333 94.4822 5.406C95.2076 5.08867 96.0916 4.93 97.1342 4.93C97.8596 4.93 98.5736 5.02067 99.2762 5.202C99.9789 5.38333 100.585 5.644 101.095 5.984L100.398 7.701C99.8769 7.395 99.3329 7.16267 98.7662 7.004C98.1996 6.84533 97.6499 6.766 97.1172 6.766C96.2446 6.766 95.5929 6.91333 95.1622 7.208C94.7429 7.50267 94.5332 7.89367 94.5332 8.381C94.5332 8.721 94.6522 8.99867 94.8902 9.214C95.1396 9.42933 95.4512 9.59933 95.8252 9.724C96.1992 9.84867 96.7092 9.99033 97.3552 10.149C98.2392 10.353 98.9646 10.5683 99.5312 10.795C100.098 11.0103 100.58 11.3447 100.976 11.798C101.384 12.2513 101.588 12.8633 101.588 13.634C101.588 14.2913 101.407 14.8863 101.044 15.419C100.693 15.9517 100.155 16.3767 99.4292 16.694C98.7039 17.0113 97.8199 17.17 96.7772 17.17Z" fill="#00B2FF"/>
<path d="M43.287 38.17C42.369 38.17 41.4793 38.0397 40.618 37.779C39.768 37.5183 39.0937 37.1727 38.595 36.742L39.36 35.025C39.8473 35.4103 40.4423 35.7277 41.145 35.977C41.859 36.215 42.573 36.334 43.287 36.334C44.171 36.334 44.8283 36.1923 45.259 35.909C45.701 35.6257 45.922 35.2517 45.922 34.787C45.922 34.447 45.7973 34.1693 45.548 33.954C45.31 33.7273 45.004 33.5517 44.63 33.427C44.256 33.3023 43.746 33.1607 43.1 33.002C42.1933 32.7867 41.4567 32.5713 40.89 32.356C40.3347 32.1407 39.853 31.8063 39.445 31.353C39.0483 30.8883 38.85 30.265 38.85 29.483C38.85 28.8257 39.0257 28.2307 39.377 27.698C39.7397 27.154 40.278 26.7233 40.992 26.406C41.7173 26.0887 42.6013 25.93 43.644 25.93C44.3693 25.93 45.0833 26.0207 45.786 26.202C46.4887 26.3833 47.095 26.644 47.605 26.984L46.908 28.701C46.3867 28.395 45.8427 28.1627 45.276 28.004C44.7093 27.8453 44.1597 27.766 43.627 27.766C42.7543 27.766 42.1027 27.9133 41.672 28.208C41.2527 28.5027 41.043 28.8937 41.043 29.381C41.043 29.721 41.162 29.9987 41.4 30.214C41.6493 30.4293 41.961 30.5993 42.335 30.724C42.709 30.8487 43.219 30.9903 43.865 31.149C44.749 31.353 45.4743 31.5683 46.041 31.795C46.6077 32.0103 47.0893 32.3447 47.486 32.798C47.894 33.2513 48.098 33.8633 48.098 34.634C48.098 35.2913 47.9167 35.8863 47.554 36.419C47.2027 36.9517 46.6643 37.3767 45.939 37.694C45.2137 38.0113 44.3297 38.17 43.287 38.17ZM52.5374 27.97H48.5934V26.1H58.6914V27.97H54.7474V38H52.5374V27.97ZM67.4703 35.246H61.5203L60.3473 38H58.0693L63.4243 26.1H65.6003L70.9723 38H68.6603L67.4703 35.246ZM66.7393 33.512L64.4953 28.31L62.2683 33.512H66.7393ZM77.8277 38.17C76.6263 38.17 75.5383 37.9093 74.5637 37.388C73.6003 36.8553 72.841 36.1243 72.2857 35.195C71.7417 34.2657 71.4697 33.2173 71.4697 32.05C71.4697 30.8827 71.7473 29.8343 72.3027 28.905C72.858 27.9757 73.6173 27.2503 74.5807 26.729C75.5553 26.1963 76.6433 25.93 77.8447 25.93C78.8193 25.93 79.709 26.1 80.5137 26.44C81.3183 26.78 81.9983 27.273 82.5537 27.919L81.1257 29.262C80.2643 28.3327 79.2047 27.868 77.9467 27.868C77.1307 27.868 76.3997 28.0493 75.7537 28.412C75.1077 28.7633 74.6033 29.2563 74.2407 29.891C73.878 30.5257 73.6967 31.2453 73.6967 32.05C73.6967 32.8547 73.878 33.5743 74.2407 34.209C74.6033 34.8437 75.1077 35.3423 75.7537 35.705C76.3997 36.0563 77.1307 36.232 77.9467 36.232C79.2047 36.232 80.2643 35.7617 81.1257 34.821L82.5537 36.181C81.9983 36.827 81.3127 37.32 80.4967 37.66C79.692 38 78.8023 38.17 77.8277 38.17ZM88.7682 33.019L86.8812 34.957V38H84.6712V26.1H86.8812V32.203L92.7632 26.1H95.2452L90.2472 31.421L95.5512 38H92.9672L88.7682 33.019Z" fill="white"/>
<path d="M21.45 13.7285V6.65C21.45 5.7425 20.7075 5 19.8 5H13.2C12.2925 5 11.55 5.7425 11.55 6.65V13.7285C11.55 13.943 11.6325 14.1575 11.7975 14.306L15.9225 18.431C16.2525 18.761 16.764 18.761 17.094 18.431L21.219 14.306C21.3675 14.1575 21.45 13.9595 21.45 13.7285ZM8.7285 16.55H1.65C0.7425 16.55 0 17.2925 0 18.2V24.8C0 25.7075 0.7425 26.45 1.65 26.45H8.7285C8.943 26.45 9.1575 26.3675 9.306 26.2025L13.431 22.0775C13.761 21.7475 13.761 21.236 13.431 20.906L9.306 16.781C9.1575 16.6325 8.9595 16.55 8.7285 16.55ZM11.55 29.2715V36.35C11.55 37.2575 12.2925 38 13.2 38H19.8C20.7075 38 21.45 37.2575 21.45 36.35V29.2715C21.45 29.057 21.3675 28.8425 21.2025 28.694L17.0775 24.569C16.7475 24.239 16.236 24.239 15.906 24.569L11.781 28.694C11.6325 28.8425 11.55 29.0405 11.55 29.2715ZM23.6775 16.7975L19.5525 20.9225C19.2225 21.2525 19.2225 21.764 19.5525 22.094L23.6775 26.219C23.826 26.3675 24.0405 26.4665 24.255 26.4665H31.35C32.2575 26.4665 33 25.724 33 24.8165V18.2165C33 17.309 32.2575 16.5665 31.35 16.5665H24.2715C24.0405 16.55 23.8425 16.6325 23.6775 16.7975Z" fill="#00B2FF"/>
</svg>
